<svg width="22" height="22" viewBox="0 0 22 22" fill="none" xmlns="http://www.w3.org/2000/svg">
<path fill-rule="evenodd" clip-rule="evenodd" d="M0.333252 16.3333V18.4666H21.6666V16.3333H18.9999V12.1653C18.5738 12.275 18.127 12.3333 17.6667 12.3333C14.7211 12.3333 12.3333 9.94552 12.3333 7C12.3333 5.39779 13.0398 3.96059 14.1583 2.98295C13.7893 2.86159 13.4032 2.76058 12.9999 2.67992V1.93325C12.9999 1.48881 12.8055 1.11103 12.4166 0.799919C12.0277 0.488807 11.5555 0.333252 10.9999 0.333252C10.4444 0.333252 9.97214 0.488807 9.58325 0.799919C9.19436 1.11103 8.99992 1.48881 8.99992 1.93325V2.67992C7.22214 3.03547 5.7777 3.78659 4.66659 4.93325C3.55547 6.07992 2.99992 7.39103 2.99992 8.86659V16.3333H0.333252ZM16.2235 3.99441C15.1052 4.53235 14.3333 5.67603 14.3333 7C14.3333 8.84095 15.8257 10.3333 17.6667 10.3333C18.1407 10.3333 18.5916 10.2344 18.9999 10.056V8.86659C18.9999 7.39103 18.4444 6.07992 17.3333 4.93325C16.9944 4.58351 16.6244 4.27056 16.2235 3.99441ZM9.11659 21.0399C9.63881 21.4577 10.2666 21.6666 10.9999 21.6666C11.7333 21.6666 12.361 21.4577 12.8833 21.0399C13.4055 20.6221 13.6666 20.1199 13.6666 19.5333H8.33325C8.33325 20.1199 8.59436 20.6221 9.11659 21.0399Z" fill="white" fill-opacity="0.25"/>
</svg>
