<svg width="28" height="28" viewBox="0 0 28 28" fill="none" xmlns="http://www.w3.org/2000/svg">
<path d="M6.55799 17.4563L7.84226 17.6575C8.7903 17.8059 9.46735 18.6742 9.39753 19.6525L9.30291 20.9784C9.27535 21.3647 9.48113 21.7283 9.82195 21.8965L10.7718 22.3645C11.1126 22.5327 11.5196 22.4697 11.798 22.2076L12.7524 21.3055C13.4562 20.6402 14.542 20.6402 15.2465 21.3055L16.201 22.2076C16.4794 22.4708 16.8855 22.5327 17.2272 22.3645L18.1788 21.8956C18.5188 21.7283 18.7237 21.3656 18.6961 20.9804L18.6014 19.6525C18.5316 18.6742 19.2087 17.8059 20.1567 17.6575L21.441 17.4563C21.8149 17.3981 22.1162 17.1115 22.2007 16.7337L22.435 15.6831C22.5195 15.3053 22.3697 14.9135 22.0574 14.6954L20.9854 13.9445C20.1944 13.3901 19.9528 12.3076 20.4305 11.4571L21.0781 10.305C21.2664 9.96951 21.2353 9.54945 20.9991 9.24686L20.3423 8.40392C20.1062 8.10132 19.713 7.97635 19.3511 8.09006L18.1091 8.4791C17.1914 8.76665 16.213 8.28457 15.8602 7.3721L15.3843 6.13823C15.2447 5.77738 14.9039 5.54057 14.5245 5.54151L13.4717 5.54433C13.0923 5.54526 12.7524 5.78396 12.6147 6.14576L12.1507 7.36552C11.8016 8.28364 10.8187 8.76948 9.89819 8.48004L8.60474 8.07408C8.24187 7.95944 7.84685 8.08535 7.61077 8.38983L6.95852 9.2337C6.72243 9.53911 6.69395 9.96012 6.88595 10.2956L7.54829 11.4505C8.0361 12.3019 7.79725 13.3948 7.0017 13.9521L5.94249 14.6945C5.63015 14.9135 5.48042 15.3053 5.56493 15.6822L5.79919 16.7328C5.88278 17.1115 6.1841 17.3981 6.55799 17.4563Z" stroke="black" stroke-width="1.5" stroke-linecap="round" stroke-linejoin="round"/>
<path d="M15.8563 12.1437C16.8812 13.1688 16.8812 14.8313 15.8563 15.8563C14.8313 16.8812 13.1688 16.8812 12.1437 15.8563C11.1188 14.8313 11.1188 13.1688 12.1437 12.1437C13.1688 11.1188 14.8313 11.1188 15.8563 12.1437Z" stroke="black" stroke-width="1.5" stroke-linecap="round" stroke-linejoin="round"/>
</svg>
